<svg width="24" height="24" viewBox="0 0 24 24" fill="none" xmlns="http://www.w3.org/2000/svg">
<path d="M3.8479 10.4698C3.55511 10.0016 2.93813 9.8593 2.46985 10.1521C2.00156 10.4449 1.8593 11.0619 2.1521 11.5302L3.8479 10.4698ZM21.8479 11.5302C22.1407 11.0619 21.9984 10.4449 21.5302 10.1521C21.0619 9.8593 20.4449 10.0016 20.1521 10.4698L21.8479 11.5302ZM4.20711 13.2071L4.91421 12.5L3.5 11.0858L2.79289 11.7929L4.20711 13.2071ZM1.29289 13.2929C0.902369 13.6834 0.902369 14.3166 1.29289 14.7071C1.68342 15.0976 2.31658 15.0976 2.70711 14.7071L1.29289 13.2929ZM21.2071 11.7929L20.5 11.0858L19.0858 12.5L19.7929 13.2071L21.2071 11.7929ZM21.2929 14.7071C21.6834 15.0976 22.3166 15.0976 22.7071 14.7071C23.0976 14.3166 23.0976 13.6834 22.7071 13.2929L21.2929 14.7071ZM8.35749 15.5145C8.64164 15.0409 8.48808 14.4267 8.0145 14.1425C7.54092 13.8584 6.92666 14.0119 6.64251 14.4855L8.35749 15.5145ZM5.14251 16.9855C4.85836 17.4591 5.01192 18.0733 5.4855 18.3575C5.95908 18.6416 6.57334 18.4881 6.85749 18.0145L5.14251 16.9855ZM11 18.9999C10.9999 19.5522 11.4476 19.9999 11.9999 20C12.5522 20.0001 12.9999 19.5524 13 19.0001L11 18.9999ZM17.3575 14.4855C17.0733 14.0119 16.4591 13.8584 15.9855 14.1425C15.5119 14.4267 15.3584 15.0409 15.6425 15.5145L17.3575 14.4855ZM17.1425 18.0145C17.4267 18.4881 18.0409 18.6416 18.5145 18.3575C18.9881 18.0733 19.1416 17.4591 18.8575 16.9855L17.1425 18.0145ZM12.0003 15C10.5701 15 8.85238 14.405 7.28294 13.4887C5.71021 12.5704 4.44277 11.4213 3.8479 10.4698L2.1521 11.5302C2.97828 12.8515 4.53857 14.2023 6.27451 15.2159C8.01374 16.2313 10.0857 17 12.0003 17V15ZM20.1521 10.4698C19.5572 11.4213 18.2899 12.5705 16.7173 13.4887C15.148 14.4051 13.4305 15 12.0003 15V17C13.9149 17 15.9867 16.2313 17.7258 15.2158C19.4616 14.2023 21.0217 12.8515 21.8479 11.5302L20.1521 10.4698ZM2.79289 11.7929L1.29289 13.2929L2.70711 14.7071L4.20711 13.2071L2.79289 11.7929ZM19.7929 13.2071L21.2929 14.7071L22.7071 13.2929L21.2071 11.7929L19.7929 13.2071ZM6.64251 14.4855L5.14251 16.9855L6.85749 18.0145L8.35749 15.5145L6.64251 14.4855ZM11.0003 15.9999L11 18.9999L13 19.0001L13.0003 16.0001L11.0003 15.9999ZM15.6425 15.5145L17.1425 18.0145L18.8575 16.9855L17.3575 14.4855L15.6425 15.5145Z" fill="#030712"/>
</svg>
