<svg width="24" height="24" viewBox="0 0 24 24" fill="none" xmlns="http://www.w3.org/2000/svg">
<path d="M12 23C10.483 23 9.05948 22.7124 7.72941 22.1373C6.39935 21.5693 5.23105 20.782 4.22451 19.7755C3.21797 18.769 2.42712 17.6007 1.85196 16.2706C1.28399 14.9405 1 13.517 1 12C1 10.483 1.28399 9.05948 1.85196 7.72941C2.42712 6.39935 3.21797 5.23105 4.22451 4.22451C5.23105 3.21078 6.39935 2.41993 7.72941 1.85196C9.05948 1.28399 10.483 1 12 1C13.517 1 14.9405 1.28399 16.2706 1.85196C17.6007 2.41993 18.769 3.21078 19.7755 4.22451C20.782 5.23105 21.5693 6.39935 22.1373 7.72941C22.7124 9.05948 23 10.483 23 12C23 13.517 22.7124 14.9405 22.1373 16.2706C21.5693 17.6007 20.782 18.769 19.7755 19.7755C18.769 20.782 17.6007 21.5693 16.2706 22.1373C14.9405 22.7124 13.517 23 12 23ZM12 21.1667C13.2654 21.1667 14.4516 20.9294 15.5588 20.4549C16.666 19.9804 17.6402 19.3225 18.4814 18.4814C19.3225 17.6402 19.9804 16.666 20.4549 15.5588C20.9294 14.4516 21.1667 13.2654 21.1667 12C21.1667 10.7346 20.9294 9.54837 20.4549 8.44118C19.9804 7.3268 19.3225 6.35261 18.4814 5.51863C17.6402 4.67745 16.666 4.01961 15.5588 3.5451C14.4516 3.07059 13.2654 2.83333 12 2.83333C10.7346 2.83333 9.54837 3.07059 8.44118 3.5451C7.33399 4.01961 6.3598 4.67745 5.51863 5.51863C4.67745 6.35261 4.01961 7.3268 3.5451 8.44118C3.07059 9.54837 2.83333 10.7346 2.83333 12C2.83333 13.2654 3.07059 14.4516 3.5451 15.5588C4.01961 16.666 4.67745 17.6402 5.51863 18.4814C6.3598 19.3225 7.33399 19.9804 8.44118 20.4549C9.54837 20.9294 10.7346 21.1667 12 21.1667ZM8.31176 16.5618C8.07451 16.5618 7.86961 16.4755 7.69706 16.3029C7.5317 16.1304 7.44902 15.9255 7.44902 15.6882C7.44902 15.451 7.53529 15.2497 7.70784 15.0843L10.7706 12.0108L7.70784 8.93725C7.53529 8.7719 7.44902 8.57059 7.44902 8.33333C7.44902 8.09608 7.5317 7.89477 7.69706 7.72941C7.86961 7.56405 8.07451 7.48137 8.31176 7.48137C8.55621 7.48137 8.75752 7.56765 8.91569 7.7402L11.9892 10.8029L15.0951 7.72941C15.2676 7.54967 15.4654 7.4598 15.6882 7.4598C15.9255 7.4598 16.1268 7.54608 16.2922 7.71863C16.4647 7.88399 16.551 8.08529 16.551 8.32255C16.551 8.55261 16.4647 8.75392 16.2922 8.92647L13.2186 12.0108L16.2814 15.0735C16.4539 15.2461 16.5402 15.451 16.5402 15.6882C16.5402 15.9255 16.4539 16.1304 16.2814 16.3029C16.116 16.4755 15.9147 16.5618 15.6775 16.5618C15.4402 16.5618 15.2353 16.4719 15.0627 16.2922L11.9892 13.2294L8.93725 16.2922C8.7719 16.4719 8.5634 16.5618 8.31176 16.5618Z" fill="black"/>
</svg>
