<svg width="24" height="24" viewBox="0 0 24 24" fill="none" xmlns="http://www.w3.org/2000/svg">
<path d="M15.6758 5.60156C15.8398 5.60156 16.0938 5.62109 16.4375 5.66016C16.7891 5.69141 17.1875 5.77734 17.6328 5.91797C18.0781 6.05859 18.5312 6.28516 18.9922 6.59766C19.4531 6.91016 19.8789 7.34766 20.2695 7.91016C20.2305 7.93359 20.082 8.03906 19.8242 8.22656C19.5742 8.41406 19.2891 8.6875 18.9688 9.04688C18.6484 9.39844 18.3672 9.84766 18.125 10.3945C17.8906 10.9336 17.7734 11.5781 17.7734 12.3281C17.7734 13.1875 17.9219 13.9141 18.2188 14.5078C18.5234 15.1016 18.875 15.582 19.2734 15.9492C19.6797 16.3164 20.0391 16.5859 20.3516 16.7578C20.6719 16.9219 20.8438 17.0078 20.8672 17.0156C20.8594 17.0469 20.8008 17.2227 20.6914 17.543C20.582 17.8555 20.4102 18.2617 20.1758 18.7617C19.9492 19.2539 19.6523 19.7695 19.2852 20.3086C18.9492 20.7852 18.6016 21.2422 18.2422 21.6797C17.8906 22.1172 17.5039 22.4727 17.082 22.7461C16.668 23.0273 16.1992 23.168 15.6758 23.168C15.2773 23.168 14.9375 23.1211 14.6562 23.0273C14.375 22.9336 14.1055 22.8242 13.8477 22.6992C13.5977 22.582 13.3203 22.4766 13.0156 22.3828C12.7109 22.2891 12.332 22.2422 11.8789 22.2422C11.2852 22.2422 10.7891 22.3164 10.3906 22.4648C10 22.6211 9.62891 22.7773 9.27734 22.9336C8.92578 23.0898 8.51172 23.168 8.03516 23.168C7.30859 23.168 6.66797 22.8828 6.11328 22.3125C5.56641 21.7422 5.00391 21.0547 4.42578 20.25C3.98047 19.6094 3.57422 18.8711 3.20703 18.0352C2.83984 17.1992 2.54688 16.3125 2.32812 15.375C2.10938 14.4375 2 13.5 2 12.5625C2 11.0625 2.28516 9.79688 2.85547 8.76562C3.42578 7.72656 4.15625 6.94141 5.04688 6.41016C5.9375 5.87109 6.86328 5.60156 7.82422 5.60156C8.33203 5.60156 8.80859 5.69141 9.25391 5.87109C9.70703 6.05078 10.1289 6.23047 10.5195 6.41016C10.9102 6.58203 11.2656 6.66797 11.5859 6.66797C11.8906 6.66797 12.25 6.58203 12.6641 6.41016C13.0781 6.23047 13.5352 6.05078 14.0352 5.87109C14.543 5.69141 15.0898 5.60156 15.6758 5.60156ZM14.8555 3.70312C14.4648 4.17969 13.9727 4.57422 13.3789 4.88672C12.793 5.19922 12.2383 5.35547 11.7148 5.35547C11.6055 5.35547 11.5 5.34375 11.3984 5.32031C11.3906 5.28906 11.3789 5.23438 11.3633 5.15625C11.3555 5.07812 11.3516 4.99219 11.3516 4.89844C11.3516 4.30469 11.4805 3.72656 11.7383 3.16406C11.9961 2.60156 12.293 2.13281 12.6289 1.75781C13.043 1.26562 13.5664 0.855469 14.1992 0.527344C14.8398 0.199219 15.4531 0.0234375 16.0391 0C16.0625 0.132812 16.0742 0.285156 16.0742 0.457031C16.0742 1.05859 15.9609 1.64453 15.7344 2.21484C15.5078 2.77734 15.2148 3.27344 14.8555 3.70312Z" fill="black"/>
</svg>
