<svg width="25" height="24" viewBox="0 0 25 24" fill="none" xmlns="http://www.w3.org/2000/svg">
<path d="M4.36283 20C3.41463 20 2.70044 19.7587 2.22027 19.2761C1.74009 18.7935 1.5 18.0758 1.5 17.123V6.87703C1.5 5.91802 1.72793 5.20031 2.1838 4.7239C2.63966 4.2413 3.27483 4 4.08931 4H20.6372C21.5854 4 22.2996 4.2413 22.7797 4.7239C23.2599 5.20031 23.5 5.91802 23.5 6.87703V17.123C23.5 18.0758 23.2721 18.7935 22.8162 19.2761C22.3603 19.7587 21.7252 20 20.9107 20H4.36283ZM4.30812 18.58H20.6828C21.1386 18.58 21.4881 18.4563 21.7312 18.2088C21.9805 17.9613 22.1051 17.5994 22.1051 17.123V6.87703C22.1051 6.40062 21.9805 6.03867 21.7312 5.79118C21.4881 5.5437 21.1386 5.41995 20.6828 5.41995H4.30812C3.85834 5.41995 3.50884 5.5437 3.25964 5.79118C3.01651 6.03867 2.89494 6.39753 2.89494 6.86775V17.1137C2.89494 17.5963 3.01651 17.9613 3.25964 18.2088C3.50884 18.4563 3.85834 18.58 4.30812 18.58ZM12.4954 14.4408C12.2037 14.4408 11.918 14.3852 11.6384 14.2738C11.3588 14.1562 11.0883 13.9768 10.827 13.7355L2.24762 5.87471L3.19581 4.90023L11.6202 12.6311C11.8998 12.8848 12.1915 13.0116 12.4954 13.0116C12.8054 13.0116 13.0972 12.8848 13.3707 12.6311L21.7951 4.90023L22.7433 5.87471L14.1639 13.7355C13.9025 13.9768 13.6321 14.1562 13.3525 14.2738C13.0729 14.3852 12.7872 14.4408 12.4954 14.4408ZM3.33257 18.8121L2.38438 17.8376L8.85765 11.2483L9.80584 12.2135L3.33257 18.8121ZM21.6765 18.8213L15.185 12.2135L16.1424 11.2483L22.6247 17.8469L21.6765 18.8213Z" fill="black"/>
</svg>
