<svg width="25" height="24" viewBox="0 0 25 24" fill="none" xmlns="http://www.w3.org/2000/svg">
<path d="M9.36737 2.54842C7.30417 3.24981 5.52487 4.58106 4.29082 6.34664C3.05677 8.11222 2.43302 10.2191 2.51118 12.3577C2.58935 14.4963 3.3653 16.5541 4.72508 18.2286C6.08486 19.9032 7.95679 21.1063 10.0659 21.6612C11.7758 22.0936 13.5673 22.1126 15.2863 21.7165C16.8436 21.3738 18.2834 20.6405 19.4646 19.5887C20.694 18.4605 21.5864 17.0253 22.0458 15.4373C22.5451 13.7105 22.634 11.8945 22.3055 10.1287H12.7035V14.0319H18.2644C18.1532 14.6544 17.9151 15.2486 17.5641 15.7788C17.2132 16.3091 16.7567 16.7645 16.222 17.1178C15.543 17.5579 14.7775 17.8541 13.9748 17.9873C13.1697 18.134 12.3439 18.134 11.5388 17.9873C10.7228 17.8219 9.95088 17.4919 9.27219 17.0182C8.18188 16.2619 7.36321 15.1874 6.933 13.9481C6.49551 12.6856 6.49551 11.3169 6.933 10.0544C7.23923 9.16947 7.74548 8.36373 8.41395 7.69733C9.17893 6.92072 10.1474 6.3656 11.2132 6.09287C12.2789 5.82013 13.4007 5.84033 14.4555 6.15124C15.2795 6.39911 16.033 6.83218 16.656 7.41594C17.283 6.80467 17.9089 6.19181 18.5338 5.57738C18.8564 5.24698 19.2081 4.93238 19.5259 4.59407C18.575 3.72693 17.4589 3.05218 16.2414 2.60849C14.0243 1.81962 11.5984 1.79842 9.36737 2.54842Z" fill="white"/>
<path d="M9.36763 2.54821C11.5985 1.7977 14.0244 1.81834 16.2416 2.6067C17.4593 3.0534 18.575 3.7314 19.5246 4.60177C19.2019 4.94008 18.8615 5.25625 18.5324 5.58508C17.9065 6.1974 17.2811 6.80762 16.6562 7.41573C16.0333 6.83197 15.2798 6.3989 14.4558 6.15103C13.4013 5.83903 12.2796 5.81767 11.2135 6.08928C10.1475 6.3609 9.17842 6.91501 8.41259 7.6908C7.74412 8.3572 7.23788 9.16294 6.93164 10.0479L3.5874 7.51058C4.78444 5.18442 6.85703 3.40508 9.36763 2.54821Z" fill="#E33629"/>
<path d="M2.70004 10.0242C2.87979 9.15124 3.17821 8.30584 3.58732 7.51062L6.93156 10.0543C6.49407 11.3167 6.49407 12.6855 6.93156 13.948C5.81735 14.7911 4.7026 15.6384 3.58732 16.49C2.56315 14.4923 2.2508 12.2161 2.70004 10.0242Z" fill="#F8BD00"/>
<path d="M12.7036 10.127H22.3056C22.634 11.8927 22.5452 13.7087 22.0459 15.4355C21.5865 17.0235 20.6941 18.4587 19.4647 19.5869C18.3854 18.7617 17.3013 17.9428 16.2221 17.1176C16.7571 16.7639 17.2138 16.308 17.5648 15.7772C17.9157 15.2464 18.1537 14.6516 18.2644 14.0286H12.7036C12.702 12.7291 12.7036 11.428 12.7036 10.127Z" fill="#587DBD"/>
<path d="M3.58569 16.4899C4.70098 15.6468 5.81572 14.7994 6.92993 13.9479C7.361 15.1876 8.18085 16.2621 9.27235 17.0179C9.95315 17.4895 10.7267 17.8168 11.5438 17.9791C12.3489 18.1258 13.1747 18.1258 13.9798 17.9791C14.7825 17.846 15.548 17.5498 16.227 17.1096C17.3063 17.9348 18.3904 18.7537 19.4696 19.579C18.2886 20.6314 16.8488 21.3652 15.2913 21.7084C13.5723 22.1044 11.7808 22.0854 10.0709 21.6531C8.71853 21.2992 7.45533 20.6754 6.36046 19.8208C5.20161 18.9192 4.25511 17.783 3.58569 16.4899Z" fill="#319F43"/>
</svg>
