<svg width="81" height="80" viewBox="0 0 81 80" fill="none" xmlns="http://www.w3.org/2000/svg">
<path d="M13.3758 66.6666C10.2151 66.6666 7.83448 65.8623 6.23389 64.2536C4.6333 62.6449 3.83301 60.2526 3.83301 57.0765V22.9234C3.83301 19.7267 4.59278 17.3343 6.11233 15.7462C7.63187 14.1376 9.74911 13.3333 12.464 13.3333H67.6236C70.7842 13.3333 73.1649 14.1376 74.7654 15.7462C76.366 17.3343 77.1663 19.7267 77.1663 22.9234V57.0765C77.1663 60.2526 76.4066 62.6449 74.887 64.2536C73.3675 65.8623 71.2502 66.6666 68.5353 66.6666H13.3758ZM13.1934 61.9334H67.7755C69.2951 61.9334 70.4601 61.5209 71.2705 60.696C72.1012 59.871 72.5165 58.6645 72.5165 57.0765V22.9234C72.5165 21.3353 72.1012 20.1288 71.2705 19.3039C70.4601 18.4789 69.2951 18.0664 67.7755 18.0664H13.1934C11.6941 18.0664 10.5291 18.4789 9.69846 19.3039C8.88803 20.1288 8.48282 21.325 8.48282 22.8924V57.0455C8.48282 58.6542 8.88803 59.871 9.69846 60.696C10.5291 61.5209 11.6941 61.9334 13.1934 61.9334ZM40.4845 48.136C39.512 48.136 38.5597 47.9504 37.6277 47.5792C36.6957 47.1873 35.7941 46.5892 34.9229 45.7849L6.32506 19.5823L9.48572 16.334L37.5669 42.1036C38.4989 42.9491 39.4714 43.3719 40.4845 43.3719C41.5178 43.3719 42.4903 42.9491 43.402 42.1036L71.4832 16.334L74.6439 19.5823L46.046 45.7849C45.1748 46.5892 44.2732 47.1873 43.3412 47.5792C42.4092 47.9504 41.457 48.136 40.4845 48.136ZM9.94159 62.7068L6.78093 59.4585L28.3585 37.4941L31.5191 40.7114L9.94159 62.7068ZM71.0881 62.7377L49.4498 40.7114L52.6408 37.4941L74.2488 59.4895L71.0881 62.7377Z" fill="#0037EB"/>
</svg>
