<svg xmlns="http://www.w3.org/2000/svg" width="16" height="16" viewBox="0 0 16 16" fill="none">
  <path d="M0.666992 4.18675C0.666992 2.95463 0.666992 2.33857 0.906778 1.86797C1.1177 1.45401 1.45426 1.11746 1.86821 0.906534C2.33882 0.666748 2.95488 0.666748 4.18699 0.666748H11.8137C13.0458 0.666748 13.6618 0.666748 14.1324 0.906534C14.5464 1.11746 14.883 1.45401 15.0939 1.86797C15.3337 2.33857 15.3337 2.95463 15.3337 4.18675V11.8134C15.3337 13.0455 15.3337 13.6616 15.0939 14.1322C14.883 14.5461 14.5464 14.8827 14.1324 15.0936C13.6618 15.3334 13.0458 15.3334 11.8137 15.3334H4.18699C2.95488 15.3334 2.33882 15.3334 1.86821 15.0936C1.45426 14.8827 1.1177 14.5461 0.906778 14.1322C0.666992 13.6616 0.666992 13.0455 0.666992 11.8134V4.18675Z" fill="#6B54FB"/>
  <path fill-rule="evenodd" clip-rule="evenodd" d="M12.9557 4.70012C13.2161 4.96045 13.2161 5.38256 12.9558 5.64293L7.29953 11.2998C7.17451 11.4248 7.00494 11.4951 6.82812 11.4951C6.6513 11.4951 6.48173 11.4249 6.3567 11.2998L3.52827 8.4714C3.26792 8.21106 3.26792 7.78894 3.52827 7.52859C3.78862 7.26825 4.21073 7.26825 4.47108 7.52859L6.82808 9.88559L12.0129 4.70017C12.2733 4.43981 12.6954 4.43978 12.9557 4.70012Z" fill="white"/>
</svg>