<svg width="24" height="24" viewBox="0 0 24 24" fill="none" xmlns="http://www.w3.org/2000/svg">
<path d="M4.75231 23C3.50154 23 2.56147 22.6893 1.9321 22.0679C1.3107 21.4545 1 20.5343 1 19.3074V4.70451C1 3.46967 1.3107 2.54554 1.9321 1.9321C2.56147 1.3107 3.50154 1 4.75231 1H19.2477C20.4985 1 21.4345 1.3107 22.0559 1.9321C22.6853 2.5535 23 3.47764 23 4.70451V19.3074C23 20.5343 22.6853 21.4545 22.0559 22.0679C21.4345 22.6893 20.4985 23 19.2477 23H4.75231ZM4.77621 21.076H19.2238C19.8133 21.076 20.2674 20.9207 20.5861 20.61C20.9127 20.2913 21.076 19.8213 21.076 19.1999V4.81206C21.076 4.19066 20.9127 3.72062 20.5861 3.40196C20.2674 3.08329 19.8133 2.92395 19.2238 2.92395H4.77621C4.17871 2.92395 3.72062 3.08329 3.40196 3.40196C3.08329 3.72062 2.92395 4.19066 2.92395 4.81206V19.1999C2.92395 19.8213 3.08329 20.2913 3.40196 20.61C3.72062 20.9207 4.17871 21.076 4.77621 21.076Z" fill="#E5102E"/>
</svg>
