<svg width="170" height="100" viewBox="0 0 170 100" fill="none" xmlns="http://www.w3.org/2000/svg">
<g clip-path="url(#clip0_218_3646)">
<path d="M66.24 53.26C65.83 52.36 66.45 51.68 67.41 51.68H72.37C72.78 51.68 73.47 52.02 73.61 52.51L77.74 64.84H77.81L84.84 51.61C84.98 51.33 85.32 50.99 85.94 50.99H86.49C87.11 50.99 87.39 51.27 87.59 51.61L94.55 64.84H94.62L98.75 52.51C99.03 51.75 99.58 51.68 100.33 51.68H104.81C105.77 51.68 106.39 52.37 106.05 53.26L97.44 79.17C97.3 79.58 96.89 79.93 96.2 79.93H95.92C95.37 79.93 95.02 79.65 94.82 79.31L86.14 63.26H86.07L77.46 79.31C77.25 79.65 76.91 79.93 76.36 79.93H76.02C75.4 79.93 74.99 79.59 74.85 79.17L66.24 53.26Z" fill="#4321AD"/>
<path d="M120.6 61.8C123.36 61.8 125.63 62.56 125.63 62.56C125.7 59.05 124.6 57.81 122.05 57.81C119.5 57.81 115.92 58.36 114.33 58.84C113.37 59.12 112.88 58.5 112.75 57.6L112.13 54.02C111.92 52.99 112.47 52.5 113.1 52.3C113.65 52.09 118.06 50.99 122.47 50.99C131.08 50.99 133.08 55.47 133.08 62.98V77.93C133.08 78.62 132.46 79.24 131.77 79.24H129.29C128.81 79.24 128.46 79.03 128.12 78.28L127.29 76.42C125.7 77.87 123.16 79.93 118.88 79.93C113.37 79.93 109.58 76.35 109.58 70.49C109.58 65.6 113.58 61.81 120.6 61.81V61.8ZM120.73 74.07C122.93 74.07 125.07 72.21 125.48 71.38V67.59C125.48 67.59 123.62 66.76 121.62 66.76C118.93 66.76 117.14 68.28 117.14 70.48C117.14 72.55 118.59 74.06 120.72 74.06L120.73 74.07Z" fill="#4321AD"/>
<path d="M149.46 98.6C149.46 99.43 149.05 99.91 147.81 99.91H142.3C141.61 99.91 140.99 99.29 140.99 98.6V52.99C140.99 52.23 141.61 51.68 142.3 51.68H144.99C145.47 51.68 145.96 51.96 146.16 52.51L147.06 54.78C148.09 53.4 151.47 50.99 155.95 50.99C163.53 50.99 169.25 57.54 169.25 65.46C169.25 73.38 163.05 79.93 155.61 79.93C152.92 79.93 150.44 78.97 149.48 78.41V98.6H149.46ZM154.49 72.48C158.35 72.48 161.17 69.31 161.17 65.45C161.17 61.59 158.55 58.42 154.76 58.42C151.25 58.42 149.52 61.18 149.11 62.62V70.89C149.11 70.89 151.04 72.47 154.48 72.47L154.49 72.48Z" fill="#4321AD"/>
<path d="M64.86 35L66.81 33.01C67.22 32.63 67.6 32.71 67.94 33.05C68.43 33.58 69.18 34.25 70.42 34.25C71.89 34.25 73.43 33.05 73.43 30.45V12.71C73.43 12.33 73.73 12 74.14 12H77.67C78.08 12 78.38 12.34 78.38 12.71V30.45C78.38 35.67 74.88 38.68 70.49 38.68C67.22 38.68 65.42 36.73 64.78 35.94C64.59 35.64 64.63 35.26 64.86 35Z" fill="#4321AD"/>
<path d="M89.44 22.9C93.69 22.9 97.15 26.51 97.15 30.76C97.15 35.01 93.69 38.69 89.44 38.69C85.19 38.69 81.73 35.08 81.73 30.76C81.73 26.44 85.19 22.9 89.44 22.9ZM89.44 34.62C91.43 34.62 93.05 32.89 93.05 30.75C93.05 28.61 91.43 26.95 89.44 26.95C87.45 26.95 85.83 28.64 85.83 30.75C85.83 32.86 87.41 34.62 89.44 34.62Z" fill="#4321AD"/>
<path d="M100.49 12.71C100.49 12.33 100.83 12 101.2 12H104.39C104.77 12 105.1 12.34 105.1 12.71V23.57C105.78 23.31 106.94 22.89 108.45 22.89C112.92 22.89 115.89 26.39 115.89 30.78C115.89 35.17 112.77 38.67 108.67 38.67C105.51 38.67 103.75 36.41 103.75 36.41L103.37 37.58C103.26 37.99 102.99 38.29 102.66 38.29H101.19C100.81 38.29 100.48 37.95 100.48 37.58V12.71H100.49ZM108.12 34.62C110.11 34.62 111.54 32.89 111.54 30.79C111.54 28.69 110 26.96 107.89 26.96C106.01 26.96 104.96 27.82 104.96 27.82V32.18C105.22 33.08 106.13 34.62 108.12 34.62Z" fill="#4321AD"/>
<path d="M67.4327 20.8895C67.6327 21.1795 67.3927 21.6695 67.0427 21.6895L43.0527 23.0695C42.7627 23.0895 42.6027 22.7495 42.7627 22.4295L53.0627 1.29955C53.2127 0.979547 53.5827 0.899547 53.7427 1.13955L67.4227 20.8895H67.4327Z" fill="#4321AD"/>
<path d="M12.3427 69.3495L16.2527 62.6195C17.1227 61.0995 18.9627 61.0995 19.9427 61.8595C20.4827 62.1895 29.2827 68.5895 36.3327 68.5895C41.9827 68.5895 46.2127 64.8995 46.2127 60.2295C46.2127 54.6895 41.5427 50.8895 32.4227 47.1995C22.2127 43.0695 12.0127 36.5595 12.0127 23.7495C12.0127 14.0895 19.1827 2.90955 36.4427 2.90955C47.5127 2.90955 55.9827 8.55955 58.1527 10.1795C59.2427 10.8295 59.5627 12.6795 58.8027 13.7595L54.6827 19.9495C53.8127 21.2495 52.1827 22.1195 50.8827 21.2495C50.0127 20.7095 41.7627 15.2795 35.7927 15.2795C29.8227 15.2795 26.2427 19.4095 26.2427 22.8795C26.2427 27.9795 30.2627 31.4595 39.0527 35.0395C49.5827 39.2695 61.7427 45.5695 61.7427 59.5795C61.7427 70.7596 52.0827 81.0795 36.7727 81.0795C23.0927 81.0795 15.0627 74.6695 12.8827 72.6095C11.9027 71.6295 11.3627 71.0895 12.3427 69.3495Z" fill="#4321AD"/>
<path d="M0.0726571 61.0495C-0.127343 60.7595 0.112657 60.2695 0.462657 60.2495L24.4527 58.8695C24.7427 58.8495 24.9027 59.1895 24.7427 59.5095L14.4327 80.6395C14.2827 80.9595 13.9127 81.0395 13.7527 80.7995L0.0726571 61.0495Z" fill="#4321AD"/>
<path d="M35.8552 75.9994H35.8449C33.481 75.9385 31.0554 75.573 28.6299 74.9132C28.3524 74.8422 28.1982 74.558 28.2702 74.2839C28.3421 74.0098 28.6299 73.8576 28.9074 73.9286C31.2507 74.5681 33.5941 74.9234 35.8757 74.9741C36.1635 74.9741 36.3793 75.2178 36.3793 75.4918C36.3793 75.7659 36.1429 75.9892 35.8654 75.9892L35.8552 75.9994ZM39.9457 75.7558C39.6991 75.7558 39.4729 75.573 39.4421 75.3294C39.401 75.0554 39.5963 74.7914 39.8738 74.7508C42.2788 74.3854 44.4988 73.6342 46.4618 72.5177C46.7085 72.3755 47.0168 72.4567 47.1607 72.7004C47.3046 72.944 47.2224 73.2485 46.9757 73.3906C44.8996 74.5783 42.5666 75.37 40.0382 75.7456C40.0074 75.7456 39.9868 75.7456 39.956 75.7456L39.9457 75.7558ZM24.8785 73.6139C24.8168 73.6139 24.7449 73.6038 24.6832 73.5733C22.4529 72.6699 20.2843 71.5432 18.2391 70.2236C18.0027 70.0713 17.9307 69.7566 18.0952 69.5232C18.2493 69.2897 18.5679 69.2288 18.8043 69.3811C20.7674 70.6499 22.936 71.7766 25.0738 72.6496C25.3307 72.7511 25.4643 73.0556 25.3513 73.3094C25.2691 73.5023 25.0738 73.6241 24.8785 73.6241V73.6139ZM49.9871 71.0255C49.8535 71.0255 49.7199 70.9747 49.6171 70.8732C49.4218 70.6702 49.4218 70.3555 49.6274 70.1525C51.3232 68.5284 52.5977 66.5389 53.2966 64.4173C53.3891 64.1534 53.6768 64.0012 53.9441 64.0925C54.2113 64.1839 54.3654 64.4681 54.2729 64.732C53.5124 67.0159 52.1557 69.1476 50.3366 70.8834C50.2338 70.9747 50.1104 71.0255 49.9768 71.0255H49.9871ZM54.4888 61.0879C54.201 61.0879 53.9749 60.8544 53.9852 60.5702V60.286C53.9852 58.0021 53.5021 55.8602 52.5463 53.9316C52.4229 53.6778 52.5257 53.3733 52.7827 53.2515C53.0396 53.1297 53.3479 53.2312 53.4713 53.485C54.4991 55.5557 55.0129 57.8396 55.0129 60.286V60.5905C55.0129 60.8646 54.7766 61.0879 54.4991 61.0879H54.4888ZM50.7271 50.8458C50.5832 50.8458 50.4393 50.7849 50.3366 50.6732C48.9491 49.0897 47.1916 47.628 44.951 46.2272C44.7146 46.0749 44.6427 45.7602 44.7968 45.5268C44.951 45.2933 45.2696 45.2222 45.506 45.3745C47.8288 46.8362 49.6685 48.3487 51.1177 50.0134C51.3027 50.2266 51.2821 50.5412 51.0663 50.7341C50.9738 50.8153 50.8504 50.8559 50.7271 50.8559V50.8458ZM41.6518 44.3087C41.5696 44.3087 41.4977 44.2884 41.4154 44.2579C39.6991 43.3951 37.7463 42.5323 35.4646 41.6187L34.8788 41.3852C34.6218 41.2736 34.4882 40.9792 34.6013 40.7254C34.7143 40.4615 35.0124 40.3499 35.2693 40.4514L35.8449 40.6848C38.1574 41.6086 40.1307 42.4815 41.8779 43.3646C42.1349 43.4865 42.2274 43.8011 42.1041 44.0447C42.0116 44.2173 41.8368 44.3188 41.6416 44.3188L41.6518 44.3087ZM31.3329 39.7408C31.2507 39.7408 31.1788 39.7205 31.1068 39.6901C28.6402 38.4923 26.6052 37.264 24.8888 35.9444C24.6627 35.7719 24.6216 35.4572 24.7963 35.2339C24.971 35.0106 25.2896 34.97 25.5157 35.1425C27.1807 36.4215 29.1541 37.6092 31.5591 38.7866C31.816 38.9085 31.9188 39.213 31.7954 39.4667C31.7029 39.6495 31.5282 39.751 31.3329 39.751V39.7408ZM22.2166 33.2748C22.0727 33.2748 21.9288 33.2139 21.826 33.1022C20.1199 31.1634 18.9791 28.9912 18.4241 26.6565C18.3624 26.3824 18.5268 26.1083 18.8043 26.0474C19.0921 25.9865 19.3593 26.1489 19.421 26.423C19.9452 28.6257 20.9935 30.595 22.6071 32.4424C22.7921 32.6556 22.7716 32.9703 22.5557 33.1631C22.4632 33.2443 22.3399 33.2849 22.2166 33.2849V33.2748ZM18.5268 23.0225C18.5268 23.0225 18.5166 23.0225 18.5063 23.0225C18.2185 23.0123 18.0027 22.7789 18.0129 22.4947C18.1054 20.0686 18.866 17.6629 20.2124 15.5414C20.3666 15.3079 20.6852 15.2369 20.9216 15.379C21.1579 15.5312 21.2299 15.8459 21.086 16.0794C19.8321 18.0486 19.1229 20.2818 19.0407 22.5353C19.0304 22.8093 18.8043 23.0225 18.5268 23.0225ZM23.306 13.227C23.1621 13.227 23.0182 13.1661 22.9257 13.0544C22.7407 12.8413 22.7613 12.5266 22.9668 12.3337C24.7654 10.7604 26.9341 9.59303 29.4316 8.87233C29.6988 8.79112 29.9866 8.94338 30.0688 9.21745C30.151 9.48137 29.9968 9.76559 29.7193 9.8468C27.3657 10.5371 25.3204 11.6232 23.6452 13.095C23.5424 13.1763 23.4293 13.227 23.306 13.227ZM48.9182 12.2728C48.8463 12.2728 48.7641 12.2525 48.7024 12.2221C47.3149 11.5724 45.9274 11.004 44.5604 10.5472C44.2932 10.4558 44.1493 10.1716 44.2418 9.89755C44.3343 9.63363 44.6221 9.49152 44.8893 9.58288C46.2871 10.06 47.7157 10.6284 49.1341 11.2984C49.391 11.4202 49.5041 11.7247 49.3807 11.9785C49.2882 12.1612 49.1032 12.2728 48.9182 12.2728ZM40.7577 9.50167C40.7577 9.50167 40.6857 9.50167 40.6549 9.50167C38.1677 9.00429 35.8141 8.92308 33.6454 9.12609C33.3782 9.1667 33.111 8.95353 33.0904 8.66931C33.0596 8.39524 33.2754 8.14147 33.5529 8.12117C35.8141 7.908 38.2704 7.98921 40.8604 8.5069C41.1379 8.5678 41.3229 8.83172 41.2613 9.10579C41.2099 9.34941 40.9941 9.51182 40.7577 9.51182V9.50167Z" fill="#EAE5FA"/>
</g>
<defs>
<clipPath id="clip0_218_3646">
<rect width="169.23" height="99.91" fill="white"/>
</clipPath>
</defs>
</svg>
